<?xml version="1.0" encoding="iso-8859-1"?>
<!DOCTYPE svg PUBLIC "-//W3C//DTD SVG 1.1//EN" "http://www.w3.org/Graphics/SVG/1.1/DTD/svg11.dtd">
<svg viewBox="0 0 24 24" xmlns="http://www.w3.org/2000/svg">
  <path d="M16.921 23.66a6.73 6.73 0 0 0 6.393-4.602 6.743 6.743 0 0 0-4.256-8.52.756.756 0 0 0-.772.186.754.754 0 0 0-.172.776c.19.537.29 1.099.296 1.668 0 2.887-2.354 5.24-5.248 5.241a5.2 5.2 0 0 1-1.663-.296.754.754 0 0 0-.775.172.756.756 0 0 0-.186.773 6.768 6.768 0 0 0 4.255 4.255c.69.23 1.406.347 2.128.347zm2.96-11.056a5.253 5.253 0 0 1 2.01 5.978 5.23 5.23 0 0 1-9.281 1.298c.18.017.361.026.541.029 3.731 0 6.759-3.028 6.759-6.75a6.828 6.828 0 0 0-.029-.555zM4.63 3.57a5.96 5.96 0 0 1 2.908-1.198V.75a.75.75 0 0 1 1.5 0v1.622a5.968 5.968 0 0 1 2.908 1.197l1.141-1.142a.75.75 0 1 1 1.061 1.061l-1.137 1.137a5.964 5.964 0 0 1 1.225 2.913h1.59a.75.75 0 0 1 0 1.5h-1.58a5.971 5.971 0 0 1-1.202 2.945l1.104 1.104a.75.75 0 0 1-1.06 1.061l-1.1-1.1a5.966 5.966 0 0 1-2.95 1.231v1.546a.75.75 0 1 1-1.5 0V14.28a5.97 5.97 0 0 1-2.95-1.23l-1.1 1.099a.749.749 0 1 1-1.06-1.06l1.103-1.105A5.966 5.966 0 0 1 2.33 9.039H.75a.75.75 0 0 1 0-1.5h1.589a5.982 5.982 0 0 1 1.225-2.913L2.427 3.488a.75.75 0 0 1 1.061-1.06l1.142 1.14zm3.658 9.255a4.5 4.5 0 1 0 0-9 4.5 4.5 0 0 0 0 9z"/>
</svg>
