<?xml version="1.0" encoding="UTF-8"?>
<svg width="383px" height="292px" viewBox="0 0 383 292" version="1.1" xmlns="http://www.w3.org/2000/svg" xmlns:xlink="http://www.w3.org/1999/xlink">
    <path d="M336.764,0.945 L45.354,0.945 C20.346,0.945 0,20.484 0,44.5 L0,247.617 C0,271.633 20.346,291.172 45.354,291.172 L336.764,291.172 C361.772,291.172 382.117,271.633 382.117,247.617 L382.117,44.5 C382.117,20.484 361.772,0.945 336.764,0.945 Z M348.248677,266.355 L35.0811737,266.355 C31.1307131,266.355 27.666,263.607744 27.666,260.474444 L27.666,57.3596095 L169.303341,185.584074 C172.20708,188.213788 175.899621,189.661167 179.701778,189.661167 L203.622699,189.662319 C207.422707,189.662319 211.117398,188.213788 214.022211,185.584074 L355.666,57.355 L355.666,260.476749 C355.666,263.607744 352.198063,266.355 348.248677,266.355 Z M191.248,163.154902 L27.248,24.2290976 L355.248,24.2290976 L191.248,163.154902 Z"/>
</svg>
