<?xml version="1.0" encoding="iso-8859-1"?>
<svg version="1.1" xmlns="http://www.w3.org/2000/svg" xmlns:xlink="http://www.w3.org/1999/xlink" x="0px" y="0px"
     viewBox="0 0 511.856 511.856" style="enable-background:new 0 0 511.856 511.856;" xml:space="preserve">
<g>
  <path d="M498.445,259.312l-234.667-256c-4.032-4.416-11.669-4.416-15.701,0l-234.667,256c-2.88,3.115-3.605,7.637-1.92,11.499
    c1.707,3.883,5.547,6.379,9.771,6.379h53.333v224c0,5.888,4.779,10.667,10.667,10.667h106.667c5.888,0,10.667-4.779,10.667-10.667
    v-160h106.667v160c0,5.888,4.779,10.667,10.667,10.667h106.667c5.888,0,10.667-4.779,10.667-10.667v-224h53.333
    c4.224,0,8.064-2.496,9.771-6.379C502.051,266.949,501.325,262.427,498.445,259.312z" transform="scale(1, 0.9), translate(0, 25)"/>
</g>
</svg>
