<?xml version="1.0" encoding="UTF-8"?>
<svg width="512px" height="512px" viewBox="0 0 512 512" version="1.1" xmlns="http://www.w3.org/2000/svg" xmlns:xlink="http://www.w3.org/1999/xlink">
    <path d="M160.007812,423 L90.007812,423 L90.007812,197 L160.007812,197 L160.007812,423 Z M166.992188,124.996094 C166.992188,102.367188 148.632812,84 126.015625,84 C103.3125,84 85,102.367188 85,124.996094 C85,147.632812 103.3125,166 126.015625,166 C148.632812,166 166.992188,147.632812 166.992188,124.996094 Z M422,298.664062 C422,237.996094 409.183594,193 338.3125,193 C304.257812,193 281.398438,210.03125 272.066406,227.742188 L272,227.742188 L272,197 L204,197 L204,423 L272,423 L272,310.789062 C272,281.402344 279.480469,252.933594 315.90625,252.933594 C351.835938,252.933594 353,286.539062 353,312.65625 L353,423 L422,423 L422,298.664062 Z M512,452 L512,60 C512,26.914062 485.085938,5.68434189e-14 452,5.68434189e-14 L60,5.68434189e-14 C26.914062,5.68434189e-14 0,26.914062 0,60 L0,452 C0,485.085938 26.914062,512 60,512 L452,512 C485.085938,512 512,485.085938 512,452 Z M460.166667,31 C471.653483,31 481,40.3465167 481,51.8333333 L481,460.166667 C481,471.653483 471.653483,481 460.166667,481 L51.8333333,481 C40.3465167,481 31,471.653483 31,460.166667 L31,51.8333333 C31,40.3465167 40.3465167,31 51.8333333,31 L460.166667,31 Z"/>
</svg>
