<?xml version="1.0" encoding="UTF-8"?>
<svg width="99px" height="103px" viewBox="0 0 99 103" version="1.1" xmlns="http://www.w3.org/2000/svg" xmlns:xlink="http://www.w3.org/1999/xlink">
    <path d="M30.4660714,6.92514777 C35.0257143,6.92514777 39.2089286,8.15575904 43.0278571,10.635258 C44.995,10.1478872 47.3446429,9.89810964 50.0525,9.89810964 C61.2603571,9.89810964 70.8046429,13.9798401 78.6914286,22.1311167 C86.5782143,30.2884854 90.5185714,40.1760205 90.5185714,51.7998141 C90.5185714,54.638749 90.2089286,57.6056187 89.5957143,60.7004233 C91.1985714,64.2886908 92,67.9317875 92,71.6297134 C92,78.3127855 89.6928571,84.0333003 85.0664286,88.7790734 C80.4460714,93.5370309 74.9392857,95.9251478 68.5217857,95.9251478 C64.7028571,95.9251478 61.0114286,94.9382219 57.4414286,92.9521859 C54.2417857,93.4456488 51.7767857,93.6954264 50.0525,93.6954264 C38.8385714,93.6954264 29.2578571,89.6136959 21.3164286,81.4563272 C13.375,73.2989584 9.39821429,63.4114234 9.39821429,51.7998141 C9.39821429,49.0766297 9.70785714,46.3047083 10.3210714,43.4535891 C8.11107143,39.7434789 7,35.6069193 7,31.0317259 C7,24.354746 9.28285714,18.670784 13.8364286,13.9798401 C18.39,9.27671187 23.9392857,6.92514777 30.4660714,6.92514777 M49.5,69.3492746 C47.267,69.3492746 45.4905,69.0116604 44.1375,68.336432 C42.691,67.5505105 41.69,66.7645889 41.129,65.984202 C39.7925,63.5102096 39.061,62.2150994 38.951,62.1099409 C38.5055,60.7650188 37.84,59.6359484 36.949,58.7393337 C35.8325,57.9644815 34.716,57.5604514 33.594,57.5604514 C32.032,57.5604514 30.7505,58.0641053 29.744,59.0769479 C28.7375,60.0842558 28.237,61.2686728 28.237,62.6135948 C28.237,64.7499731 29.029,67.0468565 30.591,69.520849 C32.0375,71.7623858 34.0505,73.6220312 36.619,75.0721118 C40.183,76.9871037 44.594,77.9445997 49.841,77.9445997 C54.186,77.9445997 58.036,77.2693713 61.391,75.9244492 C64.7405,74.3526061 67.1935,72.3878023 68.7555,70.0300376 C70.4275,67.445352 71.2635,64.6337453 71.2635,61.6062869 C71.2635,59.1433638 70.8235,56.8907577 69.9325,54.8706072 C69.036,53.1880709 67.6445,51.6715744 65.7415,50.332187 C63.734,49.0868888 61.6165,48.0795809 59.3835,47.299194 C55.594,46.1701236 52.9045,45.4395486 51.348,45.1074691 C50.5615,44.9912413 49.588,44.8030629 48.4165,44.5152606 C47.245,44.2385277 46.4915,44.0448146 46.1615,43.9285868 C44.825,43.4858141 43.8735,43.0873186 43.3125,42.7552391 C42.416,42.3069318 41.6955,41.68705 41.1345,40.8955938 C40.568,40.3421279 40.2985,39.6060183 40.2985,38.7038689 C40.2985,37.3589468 41.0795,36.1855991 42.6415,35.1672219 C44.099,34.0436862 46.211,33.479151 48.9995,33.479151 C51.7935,33.479151 53.8615,33.9883396 55.198,34.9901128 C56.6445,36.2354111 57.706,37.6356797 58.3715,39.2075228 C59.268,40.6686728 59.994,41.6759807 60.5495,42.2349812 C61.4405,42.9157442 62.502,43.2533584 63.7285,43.2533584 C65.1805,43.2533584 66.4675,42.6888232 67.573,41.5597528 C68.585,40.5579796 69.0855,39.3237507 69.0855,37.8570661 C69.0855,36.739065 68.6895,35.2723804 67.9085,33.479151 C67.0175,32.1342289 65.8405,30.7893068 64.394,29.4443847 C62.832,28.2046212 60.7695,27.136432 58.1955,26.2398173 C55.528,25.4483611 52.6735,25.060935 49.6595,25.060935 C45.6445,25.060935 42.0695,25.6697474 38.9455,26.9150457 C35.8325,28.0219774 33.429,29.7100484 31.757,31.9571198 C30.0795,34.2041913 29.2435,36.7833423 29.2435,39.7056421 C29.2435,42.6224073 30.03,45.1517464 31.5865,47.2881247 C33.4895,49.5296615 35.6015,51.0959699 37.9445,51.9981193 C40.6285,53.2378829 43.8625,54.2507254 47.6575,55.0311123 C48.323,55.1473401 49.1425,55.3410532 50.083,55.6177861 C51.029,55.9055884 51.865,56.1269747 52.5965,56.2985492 C53.317,56.4535196 53.9055,56.6029554 54.351,56.7136486 C55.913,57.2837184 57.1945,58.0585707 58.1955,59.0769479 C59.202,59.8573348 59.7025,61.0362171 59.7025,62.6135948 C59.7025,64.5285868 58.8115,66.0948952 57.0295,67.3346588 C55.0275,68.6795809 52.514,69.3492746 49.5,69.3492746 M32.2575,0 C23.408,0 15.466,3.37614186 9.3005,9.76867276 C3.223,16.0449758 0,24.0757657 0,32.9699624 C0,37.5747985 0.858,41.930575 2.563,45.9653412 C2.3045,47.9412144 2.178,49.9115529 2.178,51.8431488 C2.178,65.336647 6.8695,77.0092423 16.104,86.5288555 C25.4155,96.1148845 36.828,100.974315 50.006,100.974315 C51.403,100.974315 53.0145,100.863622 54.934,100.642235 C58.729,102.208544 62.6835,103 66.737,103 C75.471,103 83.3745,99.6017195 89.6005,93.1649113 C95.744,86.8387963 99,78.7747985 99,69.8584632 C99,66.1114992 98.3895,62.3922085 97.174,58.767007 C97.4985,56.4037077 97.6635,54.0846857 97.6635,51.8431488 C97.6635,38.3551854 93.0105,26.6936593 83.842,17.1795809 C74.5745,7.57694788 63.1895,2.70644815 50.006,2.70644815 C48.4715,2.70644815 47.003,2.77839871 45.6005,2.91676518 C41.4425,0.979634605 36.9765,0 32.2575,0 Z"/>
</svg>
