<svg width="114" height="95" viewBox="0 0 228 190" xmlns="http://www.w3.org/2000/svg"><path d="M103.766 2.9L11.094 56.554C3.664 60.814-.644 69.123.078 77.803v35.77c-.629 8.792 3.849 17.14 11.436 21.32l92.672 51.866a21.425 21.425 0 0021.14 0l90.922-51.866c7.472-4.264 11.826-12.595 11.139-21.32v-35.77c.646-8.64-3.646-16.885-11.016-21.158L125.448 2.989A21.463 21.463 0 00114.53 0a21.46 21.46 0 00-10.764 2.9zm7.344 133.03L18.438 82.275a7.06 7.06 0 01-2.733-2.797c-1.87-3.457-.647-7.809 2.733-9.722l92.672-53.656a6.863 6.863 0 016.994 0l90.923 53.78c3.345 1.977 4.492 6.352 2.562 9.775-1.93 3.424-6.21 4.597-9.556 2.62l-87.461-51.67-78.439 45.41 81.866 47.397c3.38 1.946 4.578 6.326 2.675 9.781-1.29 2.347-3.672 3.665-6.125 3.665-1.166 0-2.35-.3-3.44-.926zm.14 37.56l-92.672-51.868a6.705 6.705 0 01-.773-.433c-3.263-2.115-4.231-6.537-2.163-9.874 2.065-3.336 6.39-4.328 9.65-2.212l89.28 49.953 87.548-49.953c3.38-1.927 7.647-.685 9.53 2.772 1.883 3.459.67 7.821-2.71 9.747l-90.924 51.868a6.86 6.86 0 01-6.767 0z" fill="#207BEA"/></svg>
